<svg id="레이어_1" data-name="레이어 1" xmlns="http://www.w3.org/2000/svg" viewBox="0 0 165.25 168.12"><defs><style>.cls-1{fill:#231815;}</style></defs><path class="cls-1" d="M244,176.88c-45.64,0-82.63,37.63-82.63,84.06S198.34,345,244,345s82.62-37.64,82.62-84.06S289.61,176.88,244,176.88Zm27.21,74.89A18,18,0,0,0,255,257.05l0,0c-5.51,5.72-5.22,21.68-5.22,21.68l0,30c0-.17-8.68-2.81-9.59-3.2a39.08,39.08,0,0,1-7.49-4.07,27.76,27.76,0,0,1-12.18-23.18c.19-9.47.13-19,.13-28.44V230.41a27.43,27.43,0,0,1,6.26-.72c8.48,0,16.08,6.76,21.25,12.79,4.44-7.1,12.24-14.75,21.13-14.75.65,0,1.29,0,1.93.08Z" transform="translate(-161.35 -176.88)"/></svg>